# File created by Blade
# Date/Time:  Tue Jan 27 19:14:06 2015
# Frame Rate: 120.000 fps
#------------------------------------------------------
:FULLY-SPECIFIED
:DEGREES
3239
root 4.189454 32.416504 0.993838 -4.071570 1.487890 0.280426
Spine -1.176139 1.830137 -2.733818
Head 13.971540 -19.023175 2.882741
LeftShoulder -7.124474 -6.037999 27.094086
LeftArm -7.379118 40.852252 -106.483205
LeftForeArm 3.466513 -0.000000 13.288066
LeftHand 9.628404 -0.000000 -7.701981
LeftHandThumb1 -26.253704 0.000000 33.147579
RightShoulder -17.986472 5.609454 -51.974237
RightArm 74.927283 67.414479 91.036751
RightForeArm 29.199370 -0.000000 109.515011
RightHand 29.858947 0.000000 -13.062690
RightHandThumb1 -24.326973 -0.000000 -32.862282
LeftUpLeg 11.139050 -2.149985 -1.055314
LeftLeg 1.548194 -0.000000 -0.000000
LeftFoot -16.711451 11.474268 -22.163569
LeftToeBase 18.176335 -0.000000 -0.000000
RightUpLeg 9.799186 -0.985405 3.247728
RightLeg 0.884562 -0.000000 -0.000000
RightFoot -12.094115 -13.444872 13.898983
RightToeBase 11.616041 -0.000000 -0.000000
3240
root 4.189435 32.416455 0.991940 -4.070383 1.508318 0.286936
Spine -1.174884 1.832017 -2.728839
Head 13.947107 -19.004578 2.892053
LeftShoulder -7.121008 -5.994683 27.098735
LeftArm -7.300825 40.821237 -106.420147
LeftForeArm 3.479775 -0.000000 13.262571
LeftHand 9.683621 -0.000000 -7.772029
LeftHandThumb1 -26.253704 0.000000 33.147579
RightShoulder -17.959813 5.522257 -51.969829
RightArm 75.164672 67.460216 91.254984
RightForeArm 29.261692 0.000000 109.480268
RightHand 29.987571 0.000000 -12.796405
RightHandThumb1 -24.326973 -0.000000 -32.862282
LeftUpLeg 11.128099 -2.177267 -1.063506
LeftLeg 1.557567 -0.000000 -0.000000
LeftFoot -16.717942 11.478972 -22.166672
LeftToeBase 18.196498 -0.000000 -0.000000
RightUpLeg 9.800165 -0.990893 3.242277
RightLeg 0.879056 -0.000000 -0.000000
RightFoot -12.095448 -13.456068 13.899310
RightToeBase 11.589172 -0.000000 -0.000000
3241
root 4.186139 32.416520 0.988294 -4.053513 1.537432 0.279983
Spine -1.189105 1.824403 -2.719643
Head 13.934566 -18.980402 2.911786
LeftShoulder -7.111467 -6.001834 27.107393
LeftArm -7.287733 40.772862 -106.390568
LeftForeArm 3.574271 -0.000000 13.245695
LeftHand 9.742916 0.000000 -7.375148
LeftHandThumb1 -26.253704 0.000000 33.147579
RightShoulder -17.957460 5.497481 -51.969634
RightArm 75.208792 67.462668 91.271803
RightForeArm 29.191850 -0.000000 109.441950
RightHand 29.856527 -0.000000 -13.328234
RightHandThumb1 -24.326973 -0.000000 -32.862282
LeftUpLeg 11.108851 -2.250142 -1.061549
LeftLeg 1.541827 -0.000000 -0.000000
LeftFoot -16.724091 11.524096 -22.189881
LeftToeBase 18.165835 -0.000000 -0.000000
RightUpLeg 9.781401 -0.996890 3.254160
RightLeg 0.879437 -0.000000 -0.000000
RightFoot -12.117605 -13.465519 13.958061
RightToeBase 11.651214 -0.000000 -0.000000
3242
root 4.185732 32.416995 0.986301 -4.050346 1.559908 0.285370
Spine -1.187986 1.815828 -2.711216
Head 13.915830 -18.944073 2.922487
LeftShoulder -7.113560 -5.985590 27.111239
LeftArm -7.252094 40.749069 -106.356569
LeftForeArm 3.525834 -0.000000 13.218209
LeftHand 9.783650 -0.000000 -7.294399
LeftHandThumb1 -26.253704 0.000000 33.147579
RightShoulder -17.956055 5.501119 -51.986656
RightArm 75.209450 67.459455 91.255884
RightForeArm 29.190284 -0.000000 109.408650
RightHand 29.834066 -0.000000 -13.468338
RightHandThumb1 -24.326973 -0.000000 -32.862282
LeftUpLeg 11.095655 -2.274141 -1.068120
LeftLeg 1.547930 -0.000000 -0.000000
LeftFoot -16.727035 11.529273 -22.198201
LeftToeBase 18.222917 -0.000000 -0.000000
RightUpLeg 9.782869 -1.004985 3.252880
RightLeg 0.859856 -0.000000 -0.000000
RightFoot -12.078348 -13.485656 13.890352
RightToeBase 11.559506 -0.000000 -0.000000
3243
root 4.184856 32.417480 0.984481 -4.045093 1.570746 0.287601
Spine -1.189724 1.819668 -2.696732
Head 13.905405 -18.913489 2.918095
LeftShoulder -7.116526 -5.981570 27.108632
LeftArm -7.238264 40.751009 -106.333803
LeftForeArm 3.505964 0.000000 13.198819
LeftHand 9.790152 -0.000000 -7.262786
LeftHandThumb1 -26.253704 0.000000 33.147579
RightShoulder -17.959594 5.515718 -52.009521
RightArm 75.217918 67.442887 91.254049
RightForeArm 29.218177 -0.000000 109.379946
RightHand 29.851100 -0.000000 -13.504507
RightHandThumb1 -24.326973 -0.000000 -32.862282
LeftUpLeg 11.084799 -2.296032 -1.071355
LeftLeg 1.550933 -0.000000 -0.000000
LeftFoot -16.722454 11.546729 -22.173222
LeftToeBase 18.219574 -0.000000 -0.000000
RightUpLeg 9.777942 -1.010018 3.253284
RightLeg 0.855545 -0.000000 -0.000000
RightFoot -12.077607 -13.498517 13.886564
RightToeBase 11.610752 -0.000000 -0.000000
3244
root 4.183528 32.417920 0.982901 -4.041001 1.586097 0.288778
Spine -1.190552 1.818957 -2.687791
Head 13.890860 -18.886181 2.928636
LeftShoulder -7.113698 -5.971012 27.115757
LeftArm -7.224697 40.714690 -106.313212
LeftForeArm 3.505626 -0.000000 13.197582
LeftHand 9.801702 -0.000000 -7.262769
LeftHandThumb1 -26.253704 0.000000 33.147579
RightShoulder -17.946465 5.538932 -52.024364
RightArm 75.194335 67.460380 91.224291
RightForeArm 29.242173 -0.000000 109.369137
RightHand 29.827445 -0.000000 -13.531365
RightHandThumb1 -24.326973 -0.000000 -32.862282
LeftUpLeg 11.074026 -2.297402 -1.068846
LeftLeg 1.552677 -0.000000 -0.000000
LeftFoot -16.708964 11.525781 -22.199566
LeftToeBase 18.193420 -0.000000 -0.000000
RightUpLeg 9.777491 -0.996687 3.257029
RightLeg 0.844625 -0.000000 -0.000000
RightFoot -12.076444 -13.514122 13.915293
RightToeBase 11.599875 -0.000000 -0.000000
3245
root 4.182433 32.418359 0.980750 -4.037613 1.603989 0.292089
Spine -1.189168 1.808550 -2.679451
Head 13.886963 -18.869520 2.924944
LeftShoulder -7.113527 -5.962539 27.114794
LeftArm -7.216161 40.704448 -106.294340
LeftForeArm 3.484320 -0.000000 13.194688
LeftHand 9.774961 -0.000000 -7.273664
LeftHandThumb1 -26.253704 0.000000 33.147579
RightShoulder -17.942358 5.541219 -52.033453
RightArm 75.275306 67.446375 91.298803
RightForeArm 29.238852 -0.000000 109.371025
RightHand 29.858303 -0.000000 -13.501210
RightHandThumb1 -24.326973 -0.000000 -32.862282
LeftUpLeg 11.061794 -2.321509 -1.070764
LeftLeg 1.557886 -0.000000 -0.000000
LeftFoot -16.707276 11.528730 -22.196041
LeftToeBase 18.222079 -0.000000 -0.000000
RightUpLeg 9.775322 -1.005360 3.256916
RightLeg 0.839018 -0.000000 -0.000000
RightFoot -12.074660 -13.530124 13.891431
RightToeBase 11.606656 -0.000000 -0.000000
3246
root 4.181747 32.418579 0.979332 -4.031142 1.621209 0.295921
Spine -1.194459 1.813096 -2.669549
Head 13.881490 -18.877269 2.923977
LeftShoulder -7.106704 -5.970387 27.112894
LeftArm -7.229294 40.702440 -106.287276
LeftForeArm 3.466321 0.000000 13.198752
LeftHand 9.749466 0.000000 -7.316540
LeftHandThumb1 -26.253704 0.000000 33.147579
RightShoulder -17.936910 5.521961 -52.037437
RightArm 75.401612 67.446367 91.412588
RightForeArm 29.207077 -0.000000 109.380008
RightHand 29.834944 -0.000000 -13.515259
RightHandThumb1 -24.326973 -0.000000 -32.862282
LeftUpLeg 11.049826 -2.308867 -1.069027
LeftLeg 1.556179 -0.000000 -0.000000
LeftFoot -16.687149 11.514788 -22.182353
LeftToeBase 18.194529 -0.000000 -0.000000
RightUpLeg 9.778997 -1.000646 3.255429
RightLeg 0.819494 -0.000000 -0.000000
RightFoot -12.075580 -13.538651 13.919443
RightToeBase 11.615586 -0.000000 -0.000000
3247
root 4.181801 32.418771 0.977279 -4.027727 1.640645 0.301519
Spine -1.190912 1.806414 -2.661428
Head 13.867050 -18.873990 2.925168
LeftShoulder -7.111944 -5.977695 27.105641
LeftArm -7.237514 40.700272 -106.282277
LeftForeArm 3.469752 0.000000 13.185250
LeftHand 9.747894 0.000000 -7.270384
LeftHandThumb1 -26.253704 0.000000 33.147579
RightShoulder -17.929369 5.524125 -52.041425
RightArm 75.487517 67.443911 91.488292
RightForeArm 29.186189 -0.000000 109.395186
RightHand 29.853502 -0.000000 -13.501791
RightHandThumb1 -24.326973 -0.000000 -32.862282
LeftUpLeg 11.042185 -2.347004 -1.080251
LeftLeg 1.563356 -0.000000 -0.000000
LeftFoot -16.699518 11.507321 -22.208982
LeftToeBase 18.275882 -0.000000 -0.000000
RightUpLeg 9.780962 -1.011594 3.249483
RightLeg 0.805105 -0.000000 -0.000000
RightFoot -12.075032 -13.551279 13.910842
RightToeBase 11.622964 -0.000000 -0.000000
3248
root 4.178051 32.418760 0.976591 -4.031046 1.660466 0.294704
Spine -1.183726 1.812992 -2.653832
Head 13.870796 -18.878285 2.939877
LeftShoulder -7.107128 -5.977351 27.112443
LeftArm -7.230896 40.719523 -106.269032
LeftForeArm 3.449521 -0.000000 13.181752
LeftHand 9.718005 -0.000000 -7.291327
LeftHandThumb1 -26.253704 0.000000 33.147579
RightShoulder -17.931364 5.519916 -52.021162
RightArm 75.594693 67.433973 91.564916
RightForeArm 29.161880 -0.000000 109.408742
RightHand 29.817951 0.000000 -13.442188
RightHandThumb1 -24.326973 -0.000000 -32.862282
LeftUpLeg 11.042409 -2.325891 -1.056211
LeftLeg 1.550379 -0.000000 -0.000000
LeftFoot -16.667389 11.477461 -22.192851
LeftToeBase 18.197363 -0.000000 -0.000000
RightUpLeg 9.779590 -1.080649 3.251322
RightLeg 0.813340 -0.000000 -0.000000
RightFoot -12.069568 -13.494018 13.922159
RightToeBase 11.663230 -0.000000 -0.000000
3249
root 4.178436 32.418603 0.972975 -4.014632 1.683821 0.311341
Spine -1.191661 1.822682 -2.661164
Head 13.862151 -18.909375 2.936806
LeftShoulder -7.090669 -6.002542 27.106271
LeftArm -7.260104 40.702453 -106.273007
LeftForeArm 3.468580 -0.000000 13.199029
LeftHand 9.655950 -0.000000 -7.290855
LeftHandThumb1 -26.253704 0.000000 33.147579
RightShoulder -17.935514 5.516268 -52.028152
RightArm 75.676251 67.428742 91.645461
RightForeArm 29.116098 -0.000000 109.425278
RightHand 29.772741 -0.000000 -13.438784
RightHandThumb1 -24.326973 -0.000000 -32.862282
LeftUpLeg 11.017754 -2.317646 -1.071085
LeftLeg 1.545110 -0.000000 -0.000000
LeftFoot -16.642986 11.485910 -22.137641
LeftToeBase 18.244527 -0.000000 -0.000000
RightUpLeg 9.769642 -1.043757 3.245825
RightLeg 0.792760 -0.000000 -0.000000
RightFoot -12.080688 -13.577080 13.917755
RightToeBase 11.652756 -0.000000 -0.000000
3250
root 4.178026 32.418255 0.971248 -4.009055 1.696135 0.311968
Spine -1.192229 1.835047 -2.646380
Head 13.859214 -18.935388 2.926236
LeftShoulder -7.081612 -6.033974 27.099289
LeftArm -7.300525 40.671289 -106.291017
LeftForeArm 3.494803 -0.000000 13.193403
LeftHand 9.678428 -0.000000 -7.301856
LeftHandThumb1 -26.253704 0.000000 33.147579
RightShoulder -17.932221 5.519150 -52.026814
RightArm 75.766186 67.422472 91.712565
RightForeArm 29.062101 0.000000 109.429782
RightHand 29.759218 -0.000000 -13.421963
RightHandThumb1 -24.326973 -0.000000 -32.862282
LeftUpLeg 11.007775 -2.322455 -1.070386
LeftLeg 1.542706 -0.000000 -0.000000
LeftFoot -16.633099 11.478242 -22.142988
LeftToeBase 18.177407 -0.000000 -0.000000
RightUpLeg 9.769467 -1.030524 3.250278
RightLeg 0.780699 -0.000000 -0.000000
RightFoot -12.065980 -13.600691 13.881976
RightToeBase 11.523877 -0.000000 -0.000000
